<?xml version="1.0" encoding="UTF-8"?>
<!DOCTYPE svg PUBLIC "-//W3C//DTD SVG 1.1//EN" "http://www.w3.org/Graphics/SVG/1.1/DTD/svg11.dtd">
<svg xmlns="http://www.w3.org/2000/svg" version="1.1" width="666px" height="375px" style="shape-rendering:geometricPrecision; text-rendering:geometricPrecision; image-rendering:optimizeQuality; fill-rule:evenodd; clip-rule:evenodd" xmlns:xlink="http://www.w3.org/1999/xlink">
<g><path style="opacity:0.961" fill="#dfdfdf" d="M 232.5,144.5 C 232.973,145.906 233.973,146.573 235.5,146.5C 236.401,147.29 237.068,148.29 237.5,149.5C 237.427,151.027 238.094,152.027 239.5,152.5C 240.496,167.991 240.83,183.658 240.5,199.5C 236.486,199.666 232.486,199.499 228.5,199C 227.536,194.934 227.203,190.767 227.5,186.5C 225.5,186.5 223.5,186.5 221.5,186.5C 221.797,190.767 221.464,194.934 220.5,199C 216.577,199.793 212.744,199.626 209,198.5C 208.333,183.5 208.333,168.5 209,153.5C 210.467,150.213 212.634,147.546 215.5,145.5C 217.027,145.573 218.027,144.906 218.5,143.5C 223.417,141.939 228.084,142.273 232.5,144.5 Z M 223.5,153.5 C 224.583,153.539 225.583,153.873 226.5,154.5C 227.497,161.803 227.831,169.137 227.5,176.5C 225.5,176.5 223.5,176.5 221.5,176.5C 220.919,168.559 221.586,160.892 223.5,153.5 Z"/></g>
<g><path style="opacity:0.968" fill="#ececec" d="M 344.5,157.5 C 344.624,153.425 342.957,152.092 339.5,153.5C 339.5,154.167 339.167,154.5 338.5,154.5C 336.403,155.879 336.07,157.545 337.5,159.5C 338.593,161.349 339.926,163.016 341.5,164.5C 342.585,166.587 344.251,167.92 346.5,168.5C 347.5,169.167 348.5,169.833 349.5,170.5C 349.738,172.404 350.738,173.738 352.5,174.5C 355.075,176.845 356.075,179.845 355.5,183.5C 355.037,186.482 354.704,189.482 354.5,192.5C 353.5,195.5 351.5,197.5 348.5,198.5C 345.14,198.616 341.807,198.949 338.5,199.5C 332.369,199.342 328.202,196.342 326,190.5C 325.195,187.304 325.362,184.304 326.5,181.5C 329.833,181.5 333.167,181.5 336.5,181.5C 336.171,184.228 336.837,186.562 338.5,188.5C 341.163,190.057 343.163,189.39 344.5,186.5C 344.953,183.671 343.953,181.171 341.5,179C 339.616,178.784 337.949,178.117 336.5,177C 336.833,176.667 337.167,176.333 337.5,176C 332.543,172.882 328.876,168.715 326.5,163.5C 326.372,159.119 326.705,154.785 327.5,150.5C 332.539,142.656 339.539,140.49 348.5,144C 354.402,148.326 356.569,154.159 355,161.5C 351.927,162.617 348.76,162.784 345.5,162C 344.62,160.644 344.286,159.144 344.5,157.5 Z"/></g>
<g><path style="opacity:0.302" fill="#404040" d="M 218.5,143.5 C 218.027,144.906 217.027,145.573 215.5,145.5C 215.973,144.094 216.973,143.427 218.5,143.5 Z"/></g>
<g><path style="opacity:0.004" fill="#2b2b2b" d="M 232.5,144.5 C 234.027,144.427 235.027,145.094 235.5,146.5C 233.973,146.573 232.973,145.906 232.5,144.5 Z"/></g>
<g><path style="opacity:0.953" fill="#ebebeb" d="M 415.5,197.5 C 414.833,196.167 413.833,195.167 412.5,194.5C 411.778,194.082 411.278,193.416 411,192.5C 410.5,176.17 410.333,159.837 410.5,143.5C 414.673,142.956 418.506,143.623 422,145.5C 422.167,159.845 422.667,174.178 423.5,188.5C 428.401,190.503 429.734,194.003 427.5,199C 423.198,200.006 419.198,199.506 415.5,197.5 Z"/></g>
<g><path style="opacity:0.956" fill="#f6f6f6" d="M 370.5,148.5 C 370.5,151.5 370.5,154.5 370.5,157.5C 371.5,157.5 372.5,157.5 373.5,157.5C 374.167,157.5 374.833,157.5 375.5,157.5C 375.5,160.833 375.5,164.167 375.5,167.5C 373.833,167.5 372.167,167.5 370.5,167.5C 370.177,174.022 370.51,180.355 371.5,186.5C 373.084,188.422 374.918,190.089 377,191.5C 377.703,193.929 377.537,196.262 376.5,198.5C 371.969,198.85 367.636,198.183 363.5,196.5C 362.486,194.426 361.486,192.426 360.5,190.5C 360.5,182.833 360.5,175.167 360.5,167.5C 359.5,167.5 358.5,167.5 357.5,167.5C 356.84,166.036 356.507,164.369 356.5,162.5C 356.556,160.36 357.223,158.694 358.5,157.5C 360.344,155.721 361.01,153.388 360.5,150.5C 363.278,149.694 366.112,148.694 369,147.5C 369.765,147.57 370.265,147.903 370.5,148.5 Z"/></g>
<g><path style="opacity:0.118" fill="#292929" d="M 370.5,148.5 C 371.035,151.634 372.035,154.634 373.5,157.5C 372.5,157.5 371.5,157.5 370.5,157.5C 370.5,154.5 370.5,151.5 370.5,148.5 Z"/></g>
<g><path style="opacity:0.11" fill="#4b4b4b" d="M 237.5,149.5 C 238.906,149.973 239.573,150.973 239.5,152.5C 238.094,152.027 237.427,151.027 237.5,149.5 Z"/></g>
<g><path style="opacity:0.023" fill="#171717" d="M 327.5,150.5 C 326.705,154.785 326.372,159.119 326.5,163.5C 325.839,161.866 325.506,160.033 325.5,158C 325.3,155.134 325.967,152.634 327.5,150.5 Z"/></g>
<g><path style="opacity:0.251" fill="#8d8d8d" d="M 339.5,153.5 C 342.957,152.092 344.624,153.425 344.5,157.5C 343.704,155.164 342.038,153.831 339.5,153.5 Z"/></g>
<g><path style="opacity:0.099" fill="#373737" d="M 360.5,150.5 C 361.01,153.388 360.344,155.721 358.5,157.5C 359.065,155.048 359.732,152.715 360.5,150.5 Z"/></g>
<g><path style="opacity:0.306" fill="#525252" d="M 338.5,154.5 C 337.962,156.117 337.629,157.784 337.5,159.5C 336.07,157.545 336.403,155.879 338.5,154.5 Z"/></g>
<g><path style="opacity:0.933" fill="#f2f2f2" d="M 245.5,157.5 C 248.5,157.5 251.5,157.5 254.5,157.5C 254.334,167.839 254.5,178.172 255,188.5C 256.699,189.406 258.533,189.739 260.5,189.5C 260.5,178.833 260.5,168.167 260.5,157.5C 264.5,157.5 268.5,157.5 272.5,157.5C 272.667,168.505 272.5,179.505 272,190.5C 271.065,193.595 269.231,195.929 266.5,197.5C 260.82,198.78 255.153,198.78 249.5,197.5C 245.993,195.634 243.993,192.634 243.5,188.5C 243.334,178.828 243.5,169.161 244,159.5C 244.717,158.956 245.217,158.289 245.5,157.5 Z"/></g>
<g><path style="opacity:0.914" fill="#e6e6e6" d="M 285.5,198.5 C 281.731,198.756 278.064,198.423 274.5,197.5C 273.253,188.45 273.253,179.45 274.5,170.5C 275.341,168.188 276.341,165.855 277.5,163.5C 277.427,161.973 278.094,160.973 279.5,160.5C 281.404,160.262 282.738,159.262 283.5,157.5C 293.877,153.525 297.544,156.692 294.5,167C 291.766,167.21 289.266,168.044 287,169.5C 286.83,179.342 286.33,189.009 285.5,198.5 Z"/></g>
<g><path style="opacity:0.974" fill="#ededed" d="M 322.5,163.5 C 323.418,172.793 323.752,182.127 323.5,191.5C 323.238,194.699 321.572,196.699 318.5,197.5C 312.82,198.78 307.153,198.78 301.5,197.5C 297.456,195.114 295.123,191.447 294.5,186.5C 295.991,176.017 301.991,171.684 312.5,173.5C 313.092,170.369 312.092,168.036 309.5,166.5C 307.32,165.206 305.32,165.539 303.5,167.5C 302.081,168.451 300.415,168.784 298.5,168.5C 298.753,166.173 298.086,164.173 296.5,162.5C 297.283,160.712 298.616,159.712 300.5,159.5C 302.027,159.573 303.027,158.906 303.5,157.5C 311.464,154.775 317.797,156.775 322.5,163.5 Z M 308.5,182.5 C 309.833,182.5 311.167,182.5 312.5,182.5C 312.5,184.833 312.5,187.167 312.5,189.5C 306.37,189.804 305.037,187.471 308.5,182.5 Z"/></g>
<g><path style="opacity:0.947" fill="#f6f6f6" d="M 389.5,157.5 C 389.334,167.172 389.5,176.839 390,186.5C 390.383,187.056 390.883,187.389 391.5,187.5C 392.167,187.5 392.833,187.5 393.5,187.5C 394.15,187.196 394.817,186.863 395.5,186.5C 396.216,176.805 396.883,167.139 397.5,157.5C 400.5,157.5 403.5,157.5 406.5,157.5C 406.802,172.881 406.469,188.215 405.5,203.5C 405.107,205.284 404.441,206.95 403.5,208.5C 401.62,208.229 400.287,208.896 399.5,210.5C 392.812,212.132 386.479,211.465 380.5,208.5C 380.517,206.435 380.85,204.435 381.5,202.5C 382.151,201.909 382.818,201.243 383.5,200.5C 384.417,201.127 385.417,201.461 386.5,201.5C 389.187,201.664 391.854,201.497 394.5,201C 396.496,196.21 395.163,195.043 390.5,197.5C 385.605,197.889 382.271,195.889 380.5,191.5C 380.405,189.214 379.738,187.214 378.5,185.5C 378.5,176.167 378.5,166.833 378.5,157.5C 382.167,157.5 385.833,157.5 389.5,157.5 Z"/></g>
<g><path style="opacity:0.974" fill="#e8e8e8" d="M 449.5,181.5 C 448.167,181.5 446.833,181.5 445.5,181.5C 444.833,181.5 444.167,181.5 443.5,181.5C 442.167,181.5 440.833,181.5 439.5,181.5C 439.198,184.059 439.532,186.393 440.5,188.5C 442.042,189.301 443.708,189.634 445.5,189.5C 446.537,188.07 447.204,186.403 447.5,184.5C 447.5,184.167 447.5,183.833 447.5,183.5C 455.672,181.505 458.506,184.505 456,192.5C 451.098,199.456 444.598,201.623 436.5,199C 435.058,198.623 434.058,197.79 433.5,196.5C 433.027,195.094 432.027,194.427 430.5,194.5C 429.383,184.547 429.217,174.547 430,164.5C 433.976,157.764 439.809,155.264 447.5,157C 450.902,158.4 453.736,160.567 456,163.5C 456.83,169.528 456.664,175.528 455.5,181.5C 453.584,182.248 451.584,182.248 449.5,181.5 Z M 441.5,167.5 C 442.151,168.091 442.818,168.757 443.5,169.5C 444.086,169.291 444.586,168.957 445,168.5C 445.494,170.134 445.66,171.801 445.5,173.5C 443.833,173.5 442.167,173.5 440.5,173.5C 440.325,171.379 440.659,169.379 441.5,167.5 Z"/></g>
<g><path style="opacity:0.239" fill="#505050" d="M 283.5,157.5 C 282.738,159.262 281.404,160.262 279.5,160.5C 280.262,158.738 281.596,157.738 283.5,157.5 Z"/></g>
<g><path style="opacity:0.294" fill="#585858" d="M 303.5,157.5 C 303.027,158.906 302.027,159.573 300.5,159.5C 300.973,158.094 301.973,157.427 303.5,157.5 Z"/></g>
<g><path style="opacity:0.206" fill="#8c8d8d" d="M 406.5,157.5 C 407.661,172.328 407.828,187.328 407,202.5C 406.617,203.056 406.117,203.389 405.5,203.5C 406.469,188.215 406.802,172.881 406.5,157.5 Z"/></g>
<g><path style="opacity:0.144" fill="#3c3c3c" d="M 389.5,157.5 C 390.214,167.37 390.88,177.37 391.5,187.5C 390.883,187.389 390.383,187.056 390,186.5C 389.5,176.839 389.334,167.172 389.5,157.5 Z"/></g>
<g><path style="opacity:0.027" fill="#4a4a4a" d="M 245.5,157.5 C 245.217,158.289 244.717,158.956 244,159.5C 243.5,169.161 243.334,178.828 243.5,188.5C 242.342,178.675 242.175,168.675 243,158.5C 243.671,157.748 244.504,157.414 245.5,157.5 Z"/></g>
<g><path style="opacity:0.201" fill="#a2a2a2" d="M 397.5,157.5 C 396.883,167.139 396.216,176.805 395.5,186.5C 394.817,186.863 394.15,187.196 393.5,187.5C 392.407,185.433 392.907,184.766 395,185.5C 395.333,176.5 395.667,167.5 396,158.5C 396.383,157.944 396.883,157.611 397.5,157.5 Z"/></g>
<g><path style="opacity:0.016" fill="#686868" d="M 341.5,164.5 C 343.749,165.08 345.415,166.413 346.5,168.5C 344.251,167.92 342.585,166.587 341.5,164.5 Z"/></g>
<g><path style="opacity:0.306" fill="#949494" d="M 309.5,166.5 C 307.5,166.833 305.5,167.167 303.5,167.5C 305.32,165.539 307.32,165.206 309.5,166.5 Z"/></g>
<g><path style="opacity:0.186" fill="#434343" d="M 277.5,163.5 C 276.341,165.855 275.341,168.188 274.5,170.5C 274.34,168.801 274.506,167.134 275,165.5C 275.417,164.244 276.25,163.577 277.5,163.5 Z"/></g>
<g><path style="opacity:0.094" fill="#454545" d="M 357.5,167.5 C 358.5,167.5 359.5,167.5 360.5,167.5C 360.5,175.167 360.5,182.833 360.5,190.5C 360.098,182.745 359.098,175.078 357.5,167.5 Z"/></g>
<g><path style="opacity:0.18" fill="#545454" d="M 322.5,163.5 C 323.222,163.918 323.722,164.584 324,165.5C 324.824,174.343 324.657,183.01 323.5,191.5C 323.752,182.127 323.418,172.793 322.5,163.5 Z"/></g>
<g><path style="opacity:0.329" fill="#7f8182" d="M 441.5,167.5 C 440.659,169.379 440.325,171.379 440.5,173.5C 439.853,172.726 439.52,171.726 439.5,170.5C 439.64,168.97 440.307,167.97 441.5,167.5 Z"/></g>
<g><path style="opacity:0.4" fill="#4f4f4f" d="M 349.5,170.5 C 351.262,171.262 352.262,172.596 352.5,174.5C 350.738,173.738 349.738,172.404 349.5,170.5 Z"/></g>
<g><path style="opacity:0.425" fill="#818385" d="M 441.5,167.5 C 442.884,166.199 444.384,166.199 446,167.5C 446.497,169.81 446.663,172.143 446.5,174.5C 444.265,174.795 442.265,174.461 440.5,173.5C 442.167,173.5 443.833,173.5 445.5,173.5C 445.66,171.801 445.494,170.134 445,168.5C 444.586,168.957 444.086,169.291 443.5,169.5C 442.818,168.757 442.151,168.091 441.5,167.5 Z"/></g>
<g><path style="opacity:0.153" fill="#3c3c3c" d="M 375.5,157.5 C 376.482,160.962 376.815,164.629 376.5,168.5C 374.833,168.5 373.167,168.5 371.5,168.5C 371.5,174.5 371.5,180.5 371.5,186.5C 370.51,180.355 370.177,174.022 370.5,167.5C 372.167,167.5 373.833,167.5 375.5,167.5C 375.5,164.167 375.5,160.833 375.5,157.5 Z"/></g>
<g><path style="opacity:0.004" fill="#292929" d="M 445.5,181.5 C 446.833,181.5 448.167,181.5 449.5,181.5C 448.833,182.167 448.167,182.833 447.5,183.5C 446.5,183.167 445.833,182.5 445.5,181.5 Z"/></g>
<g><path style="opacity:0.327" fill="#696a6a" d="M 326.5,181.5 C 329.962,180.518 333.629,180.185 337.5,180.5C 337.575,183.206 337.908,185.873 338.5,188.5C 336.837,186.562 336.171,184.228 336.5,181.5C 333.167,181.5 329.833,181.5 326.5,181.5 Z"/></g>
<g><path style="opacity:0.325" fill="#777878" d="M 443.5,181.5 C 442.791,182.404 441.791,182.737 440.5,182.5C 440.5,184.5 440.5,186.5 440.5,188.5C 440.5,186.5 440.5,184.5 440.5,182.5C 441.791,182.737 442.791,182.404 443.5,181.5 Z"/></g>
<g><path style="opacity:0.142" fill="#343434" d="M 378.5,185.5 C 379.738,187.214 380.405,189.214 380.5,191.5C 378.926,189.898 378.259,187.898 378.5,185.5 Z"/></g>
<g><path style="opacity:0.016" fill="#636563" d="M 447.5,184.5 C 447.204,186.403 446.537,188.07 445.5,189.5C 445.12,187.302 445.787,185.635 447.5,184.5 Z"/></g>
<g><path style="opacity:0.247" fill="#797979" d="M 355.5,183.5 C 356.621,186.591 356.287,189.591 354.5,192.5C 354.704,189.482 355.037,186.482 355.5,183.5 Z"/></g>
<g><path style="opacity:0.308" fill="#5a5a5a" d="M 360.5,190.5 C 361.486,192.426 362.486,194.426 363.5,196.5C 361.031,195.393 360.031,193.393 360.5,190.5 Z"/></g>
<g><path style="opacity:0.027" fill="#505050" d="M 412.5,194.5 C 413.833,195.167 414.833,196.167 415.5,197.5C 413.5,197.5 412.5,196.5 412.5,194.5 Z"/></g>
<g><path style="opacity:0.09" fill="#303030" d="M 430.5,194.5 C 432.027,194.427 433.027,195.094 433.5,196.5C 431.973,196.573 430.973,195.906 430.5,194.5 Z"/></g>
<g><path style="opacity:0.491" fill="#9f9f9f" d="M 249.5,197.5 C 255.153,198.78 260.82,198.78 266.5,197.5C 266.082,198.222 265.416,198.722 264.5,199C 259.833,199.667 255.167,199.667 250.5,199C 249.944,198.617 249.611,198.117 249.5,197.5 Z"/></g>
<g><path style="opacity:0.268" fill="#919191" d="M 274.5,197.5 C 278.064,198.423 281.731,198.756 285.5,198.5C 283.866,199.161 282.033,199.494 280,199.5C 277.705,199.453 275.871,198.787 274.5,197.5 Z"/></g>
<g><path style="opacity:0.306" fill="#9d9d9d" d="M 301.5,197.5 C 307.153,198.78 312.82,198.78 318.5,197.5C 318.082,198.222 317.416,198.722 316.5,199C 311.833,199.667 307.167,199.667 302.5,199C 301.944,198.617 301.611,198.117 301.5,197.5 Z"/></g>
<g><path style="opacity:0.27" fill="#9d9d9d" d="M 363.5,196.5 C 367.636,198.183 371.969,198.85 376.5,198.5C 373.36,199.641 370.027,199.808 366.5,199C 365.058,198.623 364.058,197.79 363.5,196.5 Z"/></g>
<g><path style="opacity:0.092" fill="#818181" d="M 348.5,198.5 C 345.23,200.16 341.897,200.494 338.5,199.5C 341.807,198.949 345.14,198.616 348.5,198.5 Z"/></g>
<g><path style="opacity:0.216" fill="#717271" d="M 386.5,201.5 C 385.417,201.461 384.417,201.127 383.5,200.5C 382.818,201.243 382.151,201.909 381.5,202.5C 381.5,201.5 381.5,200.5 381.5,199.5C 383.698,199.12 385.365,199.787 386.5,201.5 Z"/></g>
<g><path style="opacity:0.175" fill="#464646" d="M 381.5,202.5 C 380.85,204.435 380.517,206.435 380.5,208.5C 379.861,207.903 379.528,207.07 379.5,206C 379.387,204.301 380.053,203.134 381.5,202.5 Z"/></g>
<g><path style="opacity:0.008" fill="#212121" d="M 403.5,208.5 C 402.486,209.674 401.153,210.34 399.5,210.5C 400.287,208.896 401.62,208.229 403.5,208.5 Z"/></g>
</svg>
